<svg width="32" height="32" viewBox="0 0 32 32" fill="none" xmlns="http://www.w3.org/2000/svg">
<mask id="mask0_123_421" style="mask-type:alpha" maskUnits="userSpaceOnUse" x="0" y="0" width="32" height="32">
<rect width="32" height="32" fill="#D9D9D9"/>
</mask>
<g mask="url(#mask0_123_421)">
<path d="M14.1332 22.1334L23.5332 12.7334L21.6665 10.8667L14.1332 18.4001L10.3332 14.6001L8.4665 16.4667L14.1332 22.1334ZM15.9998 29.3334C14.1554 29.3334 12.4221 28.9834 10.7998 28.2834C9.17761 27.5834 7.7665 26.6334 6.5665 25.4334C5.3665 24.2334 4.4165 22.8223 3.7165 21.2001C3.0165 19.5779 2.6665 17.8445 2.6665 16.0001C2.6665 14.1556 3.0165 12.4223 3.7165 10.8001C4.4165 9.17786 5.3665 7.76675 6.5665 6.56675C7.7665 5.36675 9.17761 4.41675 10.7998 3.71675C12.4221 3.01675 14.1554 2.66675 15.9998 2.66675C17.8443 2.66675 19.5776 3.01675 21.1998 3.71675C22.8221 4.41675 24.2332 5.36675 25.4332 6.56675C26.6332 7.76675 27.5832 9.17786 28.2832 10.8001C28.9832 12.4223 29.3332 14.1556 29.3332 16.0001C29.3332 17.8445 28.9832 19.5779 28.2832 21.2001C27.5832 22.8223 26.6332 24.2334 25.4332 25.4334C24.2332 26.6334 22.8221 27.5834 21.1998 28.2834C19.5776 28.9834 17.8443 29.3334 15.9998 29.3334Z" fill="#243B2D"/>
</g>
</svg>
