<?xml version="1.0" encoding="utf-8"?>
<!-- Generator: Adobe Illustrator 23.1.0, SVG Export Plug-In . SVG Version: 6.00 Build 0)  -->
<svg version="1.1" id="Layer_1" xmlns="http://www.w3.org/2000/svg" xmlns:xlink="http://www.w3.org/1999/xlink" x="0px" y="0px"
	 viewBox="0 0 48 48" style="enable-background:new 0 0 48 48;" xml:space="preserve">
<style type="text/css">
	.st0{fill:#243B2D;}
	.st1{fill:#F2EFE8;}
	.st2{fill:#F53B10;}
	.st3{fill:#FFFFFF;}
</style>
<g>
	<g>
		<path class="st3" d="M20.62,4.5c-7.73,0-14,6.43-14,14.36c0,7.93,14,25.64,14,25.64s14-17.71,14-25.64
			C34.62,10.93,28.35,4.5,20.62,4.5z M20.62,24.5c-3.31,0-6-2.69-6-6s2.69-6,6-6s6,2.69,6,6S23.93,24.5,20.62,24.5z"/>
	</g>
	<g>
		<g>
			<path class="st3" d="M26.62,4.5c-0.51,0-1.01,0.03-1.5,0.08c7.03,0.77,12.5,6.86,12.5,14.27c0,7.93-14,25.64-14,25.64h3
				c0,0,14-17.71,14-25.64C40.62,10.93,34.35,4.5,26.62,4.5z"/>
		</g>
	</g>
</g>
</svg>
