<?xml version="1.0" encoding="utf-8"?>
<!-- Generator: Adobe Illustrator 23.1.0, SVG Export Plug-In . SVG Version: 6.00 Build 0)  -->
<svg version="1.1" id="Layer_1" xmlns="http://www.w3.org/2000/svg" xmlns:xlink="http://www.w3.org/1999/xlink" x="0px" y="0px"
	 viewBox="0 0 176 48" style="enable-background:new 0 0 176 48;" xml:space="preserve">
<style type="text/css">
	.st0{fill:#243B2D;}
	.st1{fill:#F2EFE8;}
	.st2{fill:#F53B10;}
	.st3{fill:#FFFFFF;}
</style>
<g>
	<path class="st0" d="M39.28,31.05l8.78-23.69h4.46l8.78,23.69h-4.79L48.53,8.37h2.59l-7.09,22.68H39.28z"/>
	<path class="st0" d="M76,31.52c-2.33,0-4.39-0.52-6.19-1.57s-3.22-2.48-4.25-4.32c-1.03-1.84-1.55-3.92-1.55-6.25
		c0-1.92,0.34-3.65,1.01-5.18c0.67-1.54,1.6-2.84,2.79-3.92s2.54-1.91,4.07-2.5c1.52-0.59,3.14-0.88,4.84-0.88
		c2.3,0,4.35,0.52,6.14,1.57s3.19,2.48,4.21,4.3c1.02,1.82,1.53,3.91,1.53,6.26c0,1.92-0.34,3.65-1.01,5.18
		c-0.67,1.54-1.59,2.85-2.75,3.94c-1.16,1.09-2.5,1.93-4.01,2.5C79.31,31.23,77.7,31.52,76,31.52z M76.83,28.2
		c1.42,0,2.64-0.35,3.67-1.04c1.03-0.7,1.82-1.68,2.38-2.95c0.55-1.27,0.83-2.76,0.83-4.46c0-1.99-0.35-3.7-1.06-5.11
		c-0.71-1.42-1.66-2.51-2.84-3.28s-2.51-1.15-3.98-1.15c-1.34,0-2.53,0.34-3.55,1.03s-1.81,1.66-2.38,2.93s-0.85,2.77-0.85,4.5
		c0,1.97,0.35,3.67,1.06,5.09c0.71,1.43,1.65,2.53,2.83,3.29C74.12,27.82,75.41,28.2,76.83,28.2z"/>
	<path class="st0" d="M91.3,31.05l11.84-13.82L103.5,20L92.27,7.36h5.44l9.04,11.52l-9.18,12.17H91.3z M106.28,31.05V7.36h4.46
		v23.69H106.28z M119.45,31.05l-9.18-12.17l9.04-11.52h5.44L113.51,20l0.36-2.77l11.84,13.82H119.45z"/>
	<path class="st0" d="M137.88,26.76l-10.22-19.4h5.08l7.88,16.56L137.88,26.76z M134.97,31.41c-0.77,0-1.49-0.1-2.16-0.31
		c-0.67-0.2-1.27-0.46-1.8-0.77l0.97-2.34c0.5,0.1,0.95,0.17,1.33,0.22c0.38,0.05,0.76,0.07,1.12,0.07c0.6,0,1.13-0.16,1.58-0.47
		c0.46-0.31,0.86-0.77,1.22-1.37c0.36-0.6,0.71-1.33,1.04-2.2l6.66-16.88h4.86l-8.28,18.36c-0.5,1.1-1.04,2.09-1.6,2.95
		c-0.56,0.86-1.24,1.54-2.02,2.02C137.12,31.17,136.14,31.41,134.97,31.41z"/>
	<path class="st0" d="M160.42,23.2c-0.36,0-0.89-0.02-1.58-0.07c-0.7-0.05-1.38-0.14-2.05-0.29v-3.35c0.84,0.1,1.55,0.16,2.12,0.2
		c0.58,0.04,1.2,0.05,1.87,0.05c1.22,0,2.23-0.15,3.01-0.45c0.78-0.3,1.36-0.77,1.73-1.4c0.37-0.64,0.56-1.43,0.56-2.39
		c0-1.54-0.47-2.71-1.4-3.53c-0.94-0.82-2.2-1.22-3.78-1.22h-2.48v20.3h-4.46V7.36h7.7c1.8,0,3.38,0.29,4.73,0.86
		c1.36,0.58,2.42,1.39,3.19,2.45c0.77,1.06,1.15,2.32,1.15,3.78c0,1.18-0.25,2.29-0.76,3.33s-1.21,1.97-2.12,2.79
		c-0.91,0.82-2,1.46-3.26,1.93C163.32,22.97,161.93,23.2,160.42,23.2z"/>
</g>
<g>
	<path class="st0" d="M40.52,42.68v-4.92h-2.05v-0.73h5.02v0.73h-2.06v4.92H40.52z"/>
	<path class="st0" d="M44.48,45.11v-6.78c0-0.21-0.01-0.43-0.03-0.65c-0.02-0.22-0.04-0.44-0.06-0.66h0.88l0.12,1.34h-0.14
		c0.12-0.44,0.36-0.79,0.73-1.05c0.37-0.26,0.81-0.39,1.32-0.39c0.51,0,0.95,0.12,1.32,0.35c0.37,0.23,0.66,0.57,0.87,1
		c0.21,0.44,0.32,0.96,0.32,1.58c0,0.61-0.1,1.13-0.31,1.56c-0.21,0.44-0.5,0.77-0.87,1.01c-0.38,0.24-0.82,0.35-1.33,0.35
		c-0.5,0-0.94-0.13-1.31-0.38c-0.37-0.26-0.61-0.6-0.73-1.05h0.12v3.76H44.48z M47.13,42.04c0.54,0,0.97-0.19,1.29-0.56
		c0.32-0.37,0.48-0.91,0.48-1.63c0-0.72-0.16-1.27-0.48-1.64c-0.32-0.37-0.75-0.56-1.29-0.56c-0.53,0-0.96,0.19-1.28,0.56
		c-0.32,0.37-0.48,0.92-0.48,1.64c0,0.71,0.16,1.26,0.48,1.63C46.17,41.85,46.6,42.04,47.13,42.04z"/>
	<path class="st0" d="M53.5,42.78c-0.5,0-0.94-0.12-1.32-0.35s-0.67-0.57-0.87-1.01C51.11,40.99,51,40.46,51,39.86
		c0-0.62,0.1-1.14,0.31-1.58c0.21-0.44,0.5-0.77,0.87-1c0.38-0.23,0.81-0.35,1.32-0.35c0.51,0,0.95,0.13,1.32,0.39
		c0.37,0.26,0.62,0.61,0.74,1.05h-0.14l0.12-1.34h0.88c-0.02,0.22-0.04,0.44-0.06,0.66c-0.02,0.22-0.03,0.44-0.03,0.65v4.35h-0.91
		v-1.33h0.12c-0.12,0.44-0.37,0.79-0.74,1.05C54.43,42.66,54,42.78,53.5,42.78z M53.68,42.04c0.54,0,0.97-0.19,1.28-0.56
		c0.31-0.37,0.47-0.91,0.47-1.63c0-0.72-0.16-1.27-0.47-1.64c-0.32-0.37-0.74-0.56-1.28-0.56c-0.53,0-0.96,0.19-1.28,0.56
		c-0.32,0.37-0.48,0.92-0.48,1.64c0,0.71,0.16,1.26,0.48,1.63C52.72,41.85,53.15,42.04,53.68,42.04z"/>
	<path class="st0" d="M58.17,42.68v-5.65h0.91v2.36h3.11v-2.36h0.91v5.65h-0.91v-2.56h-3.11v2.56H58.17z"/>
	<path class="st0" d="M67.33,42.78c-0.56,0-1.04-0.12-1.45-0.36s-0.72-0.58-0.95-1.02c-0.22-0.44-0.33-0.97-0.33-1.58
		c0-0.62,0.11-1.14,0.34-1.57c0.23-0.43,0.54-0.76,0.95-0.98s0.89-0.34,1.44-0.34c0.36,0,0.71,0.06,1.05,0.19
		c0.34,0.13,0.63,0.31,0.85,0.54l-0.33,0.65c-0.23-0.22-0.47-0.38-0.74-0.48s-0.53-0.16-0.78-0.16c-0.59,0-1.04,0.18-1.36,0.55
		s-0.48,0.9-0.48,1.61c0,0.7,0.16,1.24,0.48,1.62s0.78,0.57,1.36,0.57c0.25,0,0.5-0.05,0.77-0.15s0.52-0.26,0.75-0.48l0.33,0.64
		c-0.23,0.24-0.52,0.42-0.87,0.55C68.02,42.72,67.67,42.78,67.33,42.78z"/>
	<path class="st0" d="M70.59,42.68v-5.65h4.9v5.65h-0.91v-4.93H71.5v4.93H70.59z"/>
	<path class="st0" d="M79.67,42.78c-0.55,0-1.02-0.12-1.42-0.35s-0.71-0.57-0.93-1.01c-0.22-0.44-0.33-0.96-0.33-1.56
		c0-0.61,0.11-1.13,0.33-1.56c0.22-0.44,0.53-0.77,0.93-1.01c0.4-0.24,0.87-0.35,1.41-0.35c0.55,0,1.02,0.12,1.42,0.35
		c0.4,0.24,0.71,0.57,0.93,1.01c0.22,0.44,0.33,0.96,0.33,1.56c0,0.6-0.11,1.12-0.33,1.56c-0.22,0.44-0.53,0.78-0.93,1.01
		C80.68,42.67,80.21,42.78,79.67,42.78z M79.67,42.04c0.53,0,0.96-0.19,1.27-0.56c0.31-0.37,0.47-0.91,0.47-1.63
		c0-0.72-0.16-1.27-0.48-1.64s-0.75-0.56-1.28-0.56c-0.53,0-0.96,0.19-1.27,0.56c-0.31,0.37-0.47,0.92-0.47,1.64
		c0,0.71,0.16,1.26,0.47,1.63C78.7,41.85,79.13,42.04,79.67,42.04z"/>
	<path class="st0" d="M83.88,45.11v-6.78c0-0.21-0.01-0.43-0.03-0.65c-0.02-0.22-0.04-0.44-0.06-0.66h0.88l0.12,1.34h-0.14
		c0.12-0.44,0.36-0.79,0.73-1.05c0.37-0.26,0.81-0.39,1.32-0.39c0.51,0,0.95,0.12,1.32,0.35c0.37,0.23,0.66,0.57,0.87,1
		c0.21,0.44,0.32,0.96,0.32,1.58c0,0.61-0.1,1.13-0.31,1.56c-0.21,0.44-0.5,0.77-0.87,1.01c-0.38,0.24-0.82,0.35-1.33,0.35
		c-0.5,0-0.94-0.13-1.31-0.38c-0.37-0.26-0.61-0.6-0.73-1.05h0.12v3.76H83.88z M86.52,42.04c0.54,0,0.97-0.19,1.29-0.56
		c0.32-0.37,0.48-0.91,0.48-1.63c0-0.72-0.16-1.27-0.48-1.64c-0.32-0.37-0.75-0.56-1.29-0.56c-0.53,0-0.96,0.19-1.28,0.56
		c-0.32,0.37-0.48,0.92-0.48,1.64c0,0.71,0.16,1.26,0.48,1.63C85.57,41.85,85.99,42.04,86.52,42.04z"/>
	<path class="st0" d="M91.91,42.68v-4.92h-2.05v-0.73h5.02v0.73h-2.06v4.92H91.91z"/>
	<path class="st0" d="M95.82,42.68v-5.65h0.91v2.36h3.11v-2.36h0.91v5.65h-0.91v-2.56h-3.11v2.56H95.82z"/>
	<path class="st0" d="M104.75,42.78c-0.5,0-0.94-0.12-1.32-0.35s-0.67-0.57-0.87-1.01c-0.21-0.44-0.31-0.96-0.31-1.56
		c0-0.62,0.1-1.14,0.31-1.58c0.21-0.44,0.5-0.77,0.87-1c0.38-0.23,0.81-0.35,1.32-0.35c0.51,0,0.95,0.13,1.32,0.39
		c0.37,0.26,0.62,0.61,0.74,1.05h-0.14l0.12-1.34h0.88c-0.02,0.22-0.04,0.44-0.06,0.66c-0.02,0.22-0.03,0.44-0.03,0.65v4.35h-0.91
		v-1.33h0.12c-0.12,0.44-0.37,0.79-0.74,1.05C105.68,42.66,105.25,42.78,104.75,42.78z M104.93,42.04c0.54,0,0.97-0.19,1.28-0.56
		c0.31-0.37,0.47-0.91,0.47-1.63c0-0.72-0.16-1.27-0.47-1.64c-0.32-0.37-0.74-0.56-1.28-0.56c-0.53,0-0.96,0.19-1.28,0.56
		c-0.32,0.37-0.48,0.92-0.48,1.64c0,0.71,0.16,1.26,0.48,1.63C103.97,41.85,104.4,42.04,104.93,42.04z"/>
	<path class="st0" d="M108.97,42.68l0.9-1.55c0.14-0.25,0.32-0.45,0.54-0.6c0.22-0.15,0.45-0.23,0.69-0.23h0.16l-0.01,0.1
		c-0.64,0-1.13-0.14-1.49-0.43c-0.35-0.29-0.53-0.71-0.53-1.26c0-0.53,0.17-0.94,0.52-1.23c0.35-0.3,0.86-0.44,1.54-0.44h2.51v5.65
		h-0.86V40.5h-0.84c-0.32,0-0.58,0.08-0.8,0.24s-0.4,0.36-0.55,0.6l-0.77,1.35H108.97z M111.45,39.86h1.5v-2.2h-1.5
		c-0.46,0-0.8,0.1-1.02,0.29c-0.22,0.2-0.33,0.46-0.33,0.8c0,0.35,0.11,0.62,0.33,0.82C110.65,39.76,110.99,39.86,111.45,39.86z"/>
	<path class="st0" d="M118.54,42.68v-5.65h0.91v2.38h1.07l1.87-2.38h1l-2.14,2.74l-0.25-0.28c0.22,0.02,0.41,0.08,0.56,0.16
		c0.16,0.08,0.31,0.21,0.46,0.37c0.15,0.17,0.31,0.39,0.48,0.69l1.17,1.98h-0.98l-1.04-1.76c-0.13-0.22-0.25-0.38-0.37-0.5
		c-0.12-0.11-0.25-0.19-0.39-0.24c-0.15-0.04-0.33-0.07-0.55-0.07h-0.9v2.56H118.54z"/>
	<path class="st0" d="M126.98,42.78c-0.55,0-1.02-0.12-1.42-0.35s-0.71-0.57-0.93-1.01c-0.22-0.44-0.33-0.96-0.33-1.56
		c0-0.61,0.11-1.13,0.33-1.56c0.22-0.44,0.53-0.77,0.93-1.01c0.4-0.24,0.87-0.35,1.41-0.35c0.55,0,1.02,0.12,1.42,0.35
		c0.4,0.24,0.71,0.57,0.93,1.01c0.22,0.44,0.33,0.96,0.33,1.56c0,0.6-0.11,1.12-0.33,1.56c-0.22,0.44-0.53,0.78-0.93,1.01
		C127.99,42.67,127.52,42.78,126.98,42.78z M126.98,42.04c0.53,0,0.96-0.19,1.27-0.56c0.31-0.37,0.47-0.91,0.47-1.63
		c0-0.72-0.16-1.27-0.48-1.64s-0.75-0.56-1.28-0.56c-0.53,0-0.96,0.19-1.27,0.56c-0.31,0.37-0.47,0.92-0.47,1.64
		c0,0.71,0.16,1.26,0.47,1.63C126.01,41.85,126.44,42.04,126.98,42.04z"/>
	<path class="st0" d="M131.14,42.68v-5.65h0.77l2.12,3.79l2.13-3.79h0.77v5.65h-0.81v-4.64h0.24l-2.08,3.73h-0.46l-2.09-3.74h0.25
		v4.65H131.14z"/>
	<path class="st0" d="M138.72,42.68v-5.65h4.9v5.65h-0.91v-4.93h-3.07v4.93H138.72z"/>
	<path class="st0" d="M147.62,42.78c-0.5,0-0.94-0.12-1.32-0.35s-0.67-0.57-0.87-1.01c-0.21-0.44-0.31-0.96-0.31-1.56
		c0-0.62,0.1-1.14,0.31-1.58c0.21-0.44,0.5-0.77,0.87-1c0.38-0.23,0.81-0.35,1.32-0.35c0.51,0,0.95,0.13,1.32,0.39
		c0.37,0.26,0.62,0.61,0.74,1.05h-0.14l0.12-1.34h0.88c-0.02,0.22-0.04,0.44-0.06,0.66c-0.02,0.22-0.03,0.44-0.03,0.65v4.35h-0.91
		v-1.33h0.12c-0.12,0.44-0.37,0.79-0.74,1.05C148.55,42.66,148.11,42.78,147.62,42.78z M147.8,42.04c0.54,0,0.97-0.19,1.28-0.56
		c0.31-0.37,0.47-0.91,0.47-1.63c0-0.72-0.16-1.27-0.47-1.64c-0.32-0.37-0.74-0.56-1.28-0.56c-0.53,0-0.96,0.19-1.28,0.56
		c-0.32,0.37-0.48,0.92-0.48,1.64c0,0.71,0.16,1.26,0.48,1.63C146.84,41.85,147.26,42.04,147.8,42.04z"/>
	<path class="st0" d="M152.29,42.68v-5.65h0.91v2.36h3.11v-2.36h0.91v5.65h-0.91v-2.56h-3.11v2.56H152.29z"/>
	<path class="st0" d="M159.02,42.68v-5.65h0.83v4.81h-0.3l3.6-4.81h0.77v5.65h-0.82v-4.82h0.3l-3.6,4.82H159.02z"/>
	<path class="st0" d="M165.27,42.68l0.9-1.55c0.14-0.25,0.32-0.45,0.54-0.6c0.22-0.15,0.45-0.23,0.69-0.23h0.16l-0.01,0.1
		c-0.64,0-1.13-0.14-1.49-0.43c-0.35-0.29-0.53-0.71-0.53-1.26c0-0.53,0.17-0.94,0.52-1.23c0.35-0.3,0.86-0.44,1.54-0.44h2.51v5.65
		h-0.86V40.5h-0.84c-0.32,0-0.58,0.08-0.8,0.24s-0.4,0.36-0.55,0.6l-0.77,1.35H165.27z M167.75,39.86h1.5v-2.2h-1.5
		c-0.46,0-0.8,0.1-1.02,0.29c-0.22,0.2-0.33,0.46-0.33,0.8c0,0.35,0.11,0.62,0.33,0.82C166.95,39.76,167.29,39.86,167.75,39.86z"/>
</g>
<g>
	<g>
		<path class="st0" d="M15.62,4.5c-7.73,0-14,6.43-14,14.36c0,7.93,14,25.64,14,25.64s14-17.71,14-25.64
			C29.62,10.93,23.35,4.5,15.62,4.5z M15.62,24.5c-3.31,0-6-2.69-6-6s2.69-6,6-6s6,2.69,6,6S18.93,24.5,15.62,24.5z"/>
	</g>
	<g>
		<g>
			<path class="st0" d="M21.62,4.5c-0.51,0-1.01,0.03-1.5,0.08c7.03,0.77,12.5,6.86,12.5,14.27c0,7.93-14,25.64-14,25.64h3
				c0,0,14-17.71,14-25.64C35.62,10.93,29.35,4.5,21.62,4.5z"/>
		</g>
	</g>
</g>
</svg>
